# xmcd
#
# Track frame offsets:
#	150
#	15926
#	31743
#	48555
#	63328
#	80571
#	98084
#	112370
#	130117
#	143461
#	157294
#	171593
#	189331
#	205355
#	219067
#	233558
#	249443
#	269182
#
# Disc length: 3901
#
# Revision: 3
# Processed by: cddbd v1.5.1PL0 Copyright (c) Steve Scherf et al.
# Submitted via: FreeRIP 2.60 
# Normalized: r2:DSETVAR1,TDELIM( - )
#
DISCID=fc0f3b12
DTITLE=Various Artist - Promo Only Country Radio Septempter 2000
DYEAR=2000
DGENRE=Country
TTITLE0=Dixie Chicks - Without You
TTITLE1=Shania Twain - I'm Holding On To Love(To Save Life)
TTITLE2=John Michael Montgomery - The Little Girl
TTITLE3=Tracy Byrd - Take Me With You When You Go
TTITLE4=Eric Heatherly - Swimming In Champagne
TTITLE5=Neal McCoy - Every Man For Himself
TTITLE6=Wade Hayes - What's It Gonna Take
TTITLE7=Sonya Isaacs - Barefoot In The Grass
TTITLE8=Clark Family Experience - Meanwhile Back At The Ranch
TTITLE9=Rascal Flatts - This Everyday Love
TTITLE10=Ricochet - She's Gone
TTITLE11=Jamie O'Neal - There Is No Arizona
TTITLE12=Jack Ingram - Barbie Doll
TTITLE13=Bill Engball - Now That's Awesome
TTITLE14=Chuck wagon and The Wheels - Play That Country Music Cowboy
TTITLE15=Hampton the Hampster - The Hampster Song
TTITLE16=Andy Scheinman - Slow Down
TTITLE17=Hank Decken - Shadows
EXTD=
EXTT0=
EXTT1=
EXTT2=
EXTT3=
EXTT4=
EXTT5=
EXTT6=
EXTT7=
EXTT8=
EXTT9=
EXTT10=
EXTT11=
EXTT12=
EXTT13=
EXTT14=
EXTT15=
EXTT16=
EXTT17=
PLAYORDER=
